# xmcd
#
# Track frame offsets: 
#        150
#        20290
#        38784
#        74070
#        100765
#        123477
#        162301
#        189166
#        215183
#        234017
#        246829
#        277493
#        291381
#        310479
#        323082
#
# Disc length: 4683 seconds
#
# Revision: 0
# Processed by: cddbd v1.5.2PL0 Copyright (c) Steve Scherf et al.
# Submitted via: ExactAudioCopy v0.95b3
#
DISCID=e412490f
DTITLE=Various Artist - Ok! Hits! [RA000561]
DYEAR=2016
DGENRE=Pop
TTITLE0=Rok-Etz - Under The Sun (Single Version)
TTITLE1=Chilly - We Are The Popkings (Single Version)
TTITLE2=Azoto - Exalt - Exalt (Album Version)
TTITLE3=The Cars - Hello Again (Remix Version)
TTITLE4=Methusalem - Zombie (Single Version)
TTITLE5=Supermax - Lovermachine (Extended Version)
TTITLE6=Saphir - Shot In The Night (Extended Remix)
TTITLE7=Laid Back - Slowmotion Girl (Album Version)
TTITLE8=Lisa Nemzo - It's So Dark Tonight (Single Version)
TTITLE9=Cosmic Gal - Hang On Fool (Single Version)
TTITLE10=D.D. Sound - Café (Long Version)
TTITLE11=Secret Service - Closer Every Day (Single Version)
TTITLE12=Fantastique - Maria No Mas (Extended Version)
TTITLE13=The Monotones - Disco Njet - Vodka Da (Single Version)
TTITLE14=Sensus - Sensus (Extended Version)
EXTD=
EXTT0=
EXTT1=
EXTT2=
EXTT3=
EXTT4=
EXTT5=
EXTT6=
EXTT7=
EXTT8=
EXTT9=
EXTT10=
EXTT11=
EXTT12=
EXTT13=
EXTT14=
PLAYORDER=
